<svg width="41" height="41" viewBox="0 0 41 41" fill="none" xmlns="http://www.w3.org/2000/svg">
<path fill-rule="evenodd" clip-rule="evenodd" d="M39.8136 18.6292L31.5051 10.6651V0.798416C31.5051 0.660355 31.3931 0.548416 31.2551 0.548416H27.0533C26.9152 0.548416 26.8033 0.660355 26.8033 0.798416V6.15816L21.3136 0.896072C20.8305 0.43251 20.0669 0.43251 19.5838 0.896072L1.06546 18.6475C0.673615 19.0394 0.4487 19.5793 0.4487 20.1311C0.4487 21.2794 1.38376 22.2144 2.53214 22.2144H5.4487V37.2144C5.4487 39.0559 6.9404 40.5476 8.78214 40.5476H32.1153C33.957 40.5476 35.4487 39.0559 35.4487 37.2144V22.2144H38.3653C39.5136 22.2144 40.4487 21.2794 40.4487 20.1311C40.4487 19.5793 40.2238 19.0394 39.8136 18.6292ZM23.6201 23.3505H14.6022V36.1411H23.6201V23.3505Z" fill="#25AAEB"/>
</svg>
