<svg width="20" height="67" viewBox="0 0 20 67" fill="none" xmlns="http://www.w3.org/2000/svg">
<rect x="0.325378" y="0.0231476" width="19.3781" height="66.0044" rx="9.68905" fill="#646464"/>
<g opacity="0.75">
<rect x="3.0638" y="24.016" width="13.9013" height="8.62838" fill="url(#paint0_linear)"/>
<rect x="3.0638" y="33.8944" width="13.9013" height="8.62838" fill="url(#paint1_linear)"/>
<rect x="3.0638" y="43.7728" width="13.9013" height="8.62838" fill="url(#paint2_linear)"/>
<rect x="3.06377" y="14.1377" width="13.9013" height="8.62838" fill="url(#paint3_linear)"/>
<path fill-rule="evenodd" clip-rule="evenodd" d="M3.0638 10.2159V12.8877H16.9488C16.9763 12.7102 16.9623 11.7227 16.9538 11.1202C16.951 10.9239 16.9488 10.7685 16.9488 10.6952C16.9488 6.8565 13.8369 3.74458 9.99817 3.74458C6.32056 3.74458 3.31004 6.60075 3.0638 10.2159Z" fill="url(#paint4_linear)"/>
<path fill-rule="evenodd" clip-rule="evenodd" d="M16.965 56.323V53.6512H3.07995C3.05248 53.8286 3.06645 54.8162 3.07498 55.4187C3.07775 55.6149 3.07995 55.7704 3.07995 55.8436C3.07995 59.6824 6.19187 62.7943 10.0306 62.7943C13.7082 62.7943 16.7187 59.9381 16.965 56.323Z" fill="url(#paint5_linear)"/>
</g>
<defs>
<linearGradient id="paint0_linear" x1="15.3997" y1="28.3302" x2="4.42362" y2="28.3302" gradientUnits="userSpaceOnUse">
<stop stop-color="#787881"/>
<stop offset="0.516956" stop-color="#E7E7E8" stop-opacity="0.69"/>
<stop offset="1" stop-color="#787881"/>
</linearGradient>
<linearGradient id="paint1_linear" x1="15.3997" y1="38.2086" x2="4.42362" y2="38.2086" gradientUnits="userSpaceOnUse">
<stop stop-color="#787881"/>
<stop offset="0.516956" stop-color="#E7E7E8" stop-opacity="0.69"/>
<stop offset="1" stop-color="#787881"/>
</linearGradient>
<linearGradient id="paint2_linear" x1="15.3997" y1="48.087" x2="4.42362" y2="48.087" gradientUnits="userSpaceOnUse">
<stop stop-color="#787881"/>
<stop offset="0.516956" stop-color="#E7E7E8" stop-opacity="0.69"/>
<stop offset="1" stop-color="#787881"/>
</linearGradient>
<linearGradient id="paint3_linear" x1="15.3997" y1="18.4519" x2="4.42359" y2="18.4519" gradientUnits="userSpaceOnUse">
<stop stop-color="#787881"/>
<stop offset="0.516956" stop-color="#E7E7E8" stop-opacity="0.69"/>
<stop offset="1" stop-color="#787881"/>
</linearGradient>
<linearGradient id="paint4_linear" x1="15.3998" y1="8.31612" x2="4.42362" y2="8.31612" gradientUnits="userSpaceOnUse">
<stop stop-color="#787881"/>
<stop offset="0.516956" stop-color="#E7E7E8" stop-opacity="0.69"/>
<stop offset="1" stop-color="#787881"/>
</linearGradient>
<linearGradient id="paint5_linear" x1="4.62902" y1="58.2227" x2="15.6052" y2="58.2227" gradientUnits="userSpaceOnUse">
<stop stop-color="#787881"/>
<stop offset="0.516956" stop-color="#E7E7E8" stop-opacity="0.69"/>
<stop offset="1" stop-color="#787881"/>
</linearGradient>
</defs>
</svg>
