<svg width="41" height="41" viewBox="0 0 41 41" fill="none" xmlns="http://www.w3.org/2000/svg">
<g clip-path="url(#clip0)">
<path d="M40.6938 19.6988C40.3279 19.2906 31.5253 9.68945 20.5 9.68945C9.47467 9.68945 0.67217 19.2906 0.306133 19.6988C-0.102105 20.1551 -0.102105 20.8449 0.306133 21.3012C0.67217 21.7094 9.47484 31.3105 20.5 31.3105C31.5251 31.3105 40.3278 21.7094 40.6938 21.3012C41.102 20.8449 41.102 20.1551 40.6938 19.6988ZM20.5 28.9082C15.8642 28.9082 12.0918 25.1358 12.0918 20.5C12.0918 15.8642 15.8642 12.0918 20.5 12.0918C25.1358 12.0918 28.9082 15.8642 28.9082 20.5C28.9082 25.1358 25.1358 28.9082 20.5 28.9082Z" fill="#E3E3E3"/>
<path d="M21.7012 18.0977C21.7012 16.8893 22.301 15.8262 23.2136 15.1724C22.3947 14.7532 21.4814 14.4941 20.5 14.4941C17.1885 14.4941 14.4941 17.1885 14.4941 20.5C14.4941 23.8115 17.1885 26.5059 20.5 26.5059C23.4648 26.5059 25.9187 24.341 26.4035 21.5123C23.9847 22.2911 21.7012 20.4617 21.7012 18.0977Z" fill="#E3E3E3"/>
</g>
<defs>
<clipPath id="clip0">
<rect width="41" height="41" fill="white"/>
</clipPath>
</defs>
</svg>
