<svg width="43" height="26" viewBox="0 0 43 26" fill="none" xmlns="http://www.w3.org/2000/svg">
<path d="M15.3557 8.88416C15.2869 8.51123 15.2509 8.12671 15.2509 7.73389C15.2509 4.25256 18.073 1.43054 21.5542 1.43054C24.6748 1.43054 27.2658 3.69824 27.7691 6.67566H27.8499V6.58374H27.9084V8.88416H33.8051V6.67566H41.9028V8.97607H36.006V25.4901H6.72678V8.97607H0.829987V6.67566H9.26212V8.88416H15.3557Z" fill="#E3E3E3"/>
<path d="M27.8575 8.75037C27.8575 12.2316 25.0354 15.0537 21.5542 15.0537C18.073 15.0537 15.2509 12.2316 15.2509 8.75037M15.3557 8.88416C15.2869 8.51123 15.2509 8.12671 15.2509 7.73389C15.2509 4.25256 18.073 1.43054 21.5542 1.43054C24.6748 1.43054 27.2658 3.69824 27.7691 6.67566H27.8499V6.58374H27.9084V8.88416H33.8051V6.67566H41.9028V8.97607H36.006V25.4901H6.72678V8.97607H0.829987V6.67566H9.26212V8.88416H15.3557Z" stroke="black" stroke-opacity="0.13"/>
</svg>
