<svg width="413" height="413" viewBox="0 0 413 413" fill="none" xmlns="http://www.w3.org/2000/svg">
<g clip-path="url(#clip0)">
<path d="M404.72 83.1508C404.693 83.1508 404.666 83.1508 404.64 83.1508H377.52V73.8708C377.666 70.1978 375.29 66.8968 371.76 65.8708C352.932 60.9368 333.544 58.4628 314.08 58.5108C282.08 58.5108 238.48 65.7108 206.24 98.5108C174.24 65.3908 130.32 58.5108 98.4 58.5108C78.936 58.4628 59.548 60.9368 40.72 65.8708C37.19 66.8968 34.814 70.1978 34.96 73.8708V83.0708H8C3.582 83.0708 0 86.6528 0 91.0708V346.591C0 351.009 3.582 354.591 8 354.591C9.374 354.587 10.724 354.229 11.92 353.551C12.72 353.151 92.72 309.391 204.4 337.551H205.6H206.32C206.958 337.628 207.602 337.628 208.24 337.551C320.24 309.151 400.24 352.831 400.72 353.551C403.195 354.98 406.245 354.98 408.72 353.551C411.18 352.131 412.703 349.512 412.72 346.671V91.1508C412.72 86.7328 409.139 83.1508 404.72 83.1508ZM16 333.871V99.1508H35.12V299.791C35.07 304.209 38.611 307.831 43.029 307.881C43.461 307.886 43.893 307.856 44.32 307.791C60.87 305.264 77.579 303.927 94.32 303.791C117.51 303.389 140.603 306.877 162.64 314.111C112.875 308.093 62.397 314.895 16 333.871ZM94.32 287.871C79.769 287.904 65.235 288.839 50.8 290.671V80.1908C66.376 76.7208 82.282 74.9498 98.24 74.9108C128.16 74.9108 169.44 81.7908 198.08 114.111L198.32 313.391C181.68 302.511 149.2 287.871 94.32 287.871ZM214.32 114.111C242.96 82.1108 284.24 74.9108 314.16 74.9108C330.117 74.9578 346.023 76.7278 361.6 80.1908V290.671C347.246 288.822 332.792 287.86 318.32 287.791C263.76 287.791 231.2 302.431 214.32 313.311V114.111V114.111ZM396.64 333.871C350.144 314.843 299.55 308.04 249.68 314.111C271.821 306.851 295.024 303.362 318.32 303.791C335.166 303.885 351.983 305.195 368.64 307.711C373.008 308.374 377.087 305.37 377.75 301.002C377.815 300.575 377.845 300.143 377.84 299.711V99.1508H396.96L396.64 333.871Z" fill="#E3E3E3"/>
</g>
<defs>
<clipPath id="clip0">
<rect width="412.72" height="412.72" fill="white" transform="translate(0 0.206787)"/>
</clipPath>
</defs>
</svg>
