<svg width="87" height="86" viewBox="0 0 87 86" fill="none" xmlns="http://www.w3.org/2000/svg">
<g clip-path="url(#clip0)">
<path d="M85.5714 70.0803L50.2092 9.21261C48.5833 6.46899 46.2462 4.84314 43.8074 4.84314C41.267 4.84314 38.9298 6.46899 37.4056 9.21261L2.24664 70.0803C0.620793 72.8239 0.417562 75.6691 1.73856 77.8031C2.95795 79.937 5.49834 81.1564 8.75003 81.1564H79.068C82.218 81.1564 84.7584 79.937 86.0794 77.8031C87.2988 75.6691 87.0956 72.8239 85.5714 70.0803ZM82.2181 75.6691C81.71 76.4821 80.5922 76.8885 78.9664 76.8885H8.64842C7.02257 76.8885 5.80318 76.3804 5.39672 75.6691C4.88864 74.8562 5.09188 73.6368 5.9048 72.2142L41.0638 11.3465C41.8767 9.92391 42.8928 9.11099 43.8074 9.11099C44.7219 9.11099 45.7381 9.92391 46.551 11.3465L81.71 72.2142C82.5229 73.6368 82.7261 74.8562 82.2181 75.6691Z" fill="#C22933"/>
<path d="M43.8074 24.8615C42.588 24.8615 41.6735 25.776 41.6735 26.9954V55.2445C41.6735 56.4639 42.588 57.3784 43.8074 57.3784C45.0268 57.3784 45.9413 56.4639 45.9413 55.2445V26.9954C45.9413 25.776 45.0268 24.8615 43.8074 24.8615Z" fill="#C22933"/>
<path d="M43.8074 69.6738C45.8838 69.6738 47.5671 67.9905 47.5671 65.9141C47.5671 63.8376 45.8838 62.1543 43.8074 62.1543C41.7309 62.1543 40.0476 63.8376 40.0476 65.9141C40.0476 67.9905 41.7309 69.6738 43.8074 69.6738Z" fill="#C22933"/>
</g>
<defs>
<clipPath id="clip0">
<rect width="86" height="86" fill="white" transform="translate(0.871582 -0.000366211)"/>
</clipPath>
</defs>
</svg>
