<svg width="41" height="33" viewBox="0 0 41 33" fill="none" xmlns="http://www.w3.org/2000/svg">
<path d="M28.2307 1.46613C28.2307 1.18998 28.0069 0.966125 27.7307 0.966125H13.9391C13.6629 0.966125 13.4391 1.18998 13.4391 1.46613V10.9814C13.4391 11.2575 13.2152 11.4814 12.9391 11.4814H1.32971C1.05357 11.4814 0.829712 11.7052 0.829712 11.9814V15.0773C0.829712 15.3535 1.05357 15.5773 1.32971 15.5773H5.9679C6.24404 15.5773 6.4679 15.8012 6.4679 16.0773V31.9433C6.4679 32.2194 6.69175 32.4433 6.9679 32.4433H34.7018C34.9779 32.4433 35.2018 32.2194 35.2018 31.9433V16.0773C35.2018 15.8012 35.4256 15.5773 35.7018 15.5773H40.34C40.6161 15.5773 40.84 15.3535 40.84 15.0773V11.9814C40.84 11.7052 40.6161 11.4814 40.34 11.4814H28.7307C28.4546 11.4814 28.2307 11.2575 28.2307 10.9814V1.46613Z" fill="#FFFCF7"/>
</svg>
