<svg width="58" height="58" viewBox="0 0 58 58" fill="none" xmlns="http://www.w3.org/2000/svg">
<g clip-path="url(#clip0)">
<path d="M20.3363 51.0332C23.5133 51.9571 26.9019 50.1503 27.8261 46.973L32.5775 30.6347L38.7514 30.2265C39.3213 33.9484 42.6543 36.6788 46.4815 36.4254C50.5228 36.1574 53.5814 32.6655 53.3145 28.6241C53.0468 24.5833 49.5548 21.5235 45.5128 21.7908C42.7394 21.9744 40.429 23.6777 39.3389 26.0337L31.7773 26.5342L33.8934 19.2583C36.4285 18.7004 38.5891 16.8108 39.3657 14.1423C40.4966 10.2527 38.2605 6.18429 34.3721 5.05309C30.4826 3.92222 26.4138 6.15789 25.2827 10.0464C24.2118 13.7291 26.161 17.5715 29.6725 18.9295L27.9451 24.8709L10.9679 25.9944C7.66576 26.2127 5.17228 29.1334 5.39076 32.4348L26.1448 31.0606L20.3363 51.0332ZM43.5932 26.1424C45.2297 24.8273 47.6227 25.0878 48.9378 26.7244C50.2529 28.3609 49.9923 30.7539 48.3558 32.069C46.7189 33.3844 44.3263 33.1236 43.0112 31.487C41.6961 29.8505 41.9563 27.4578 43.5932 26.1424ZM29.9403 9.15273C31.5768 7.8376 33.9698 8.09818 35.2849 9.73472C36.6 11.3713 36.3395 13.7642 34.7029 15.0794C33.066 16.3948 30.6734 16.1339 29.3583 14.4974C28.0432 12.8609 28.3034 10.4682 29.9403 9.15273Z" fill="#F2F2F2"/>
</g>
<defs>
<clipPath id="clip0">
<rect width="41.0703" height="41.0703" fill="white" transform="translate(57.7408 32.0142) rotate(141.215)"/>
</clipPath>
</defs>
</svg>
