<svg width="87" height="87" viewBox="0 0 87 87" fill="none" xmlns="http://www.w3.org/2000/svg">
<g clip-path="url(#clip0)">
<path d="M85.5017 70.9587L50.1395 10.091C48.5136 7.34741 46.1765 5.72156 43.7377 5.72156C41.1973 5.72156 38.8601 7.34741 37.3359 10.091L2.17694 70.9587C0.551091 73.7023 0.34786 76.5476 1.66886 78.6815C2.88825 80.8154 5.42864 82.0348 8.68033 82.0348H78.9983C82.1483 82.0348 84.6887 80.8154 86.0097 78.6815C87.2291 76.5476 87.0259 73.7023 85.5017 70.9587ZM82.1484 76.5476C81.6403 77.3605 80.5225 77.7669 78.8966 77.7669H8.57872C6.95287 77.7669 5.73348 77.2589 5.32702 76.5476C4.81894 75.7346 5.02217 74.5152 5.8351 73.0926L40.9941 12.2249C41.807 10.8023 42.8231 9.98941 43.7377 9.98941C44.6522 9.98941 45.6684 10.8023 46.4813 12.2249L81.6403 73.0926C82.4532 74.5152 82.6564 75.7346 82.1484 76.5476Z" fill="#EED23D"/>
<path d="M43.7377 25.7399C42.5183 25.7399 41.6038 26.6544 41.6038 27.8738V56.1229C41.6038 57.3423 42.5183 58.2568 43.7377 58.2568C44.9571 58.2568 45.8716 57.3423 45.8716 56.1229V27.8738C45.8716 26.6544 44.9571 25.7399 43.7377 25.7399Z" fill="#EED23D"/>
<path d="M43.7377 70.5522C45.8141 70.5522 47.4974 68.8689 47.4974 66.7925C47.4974 64.716 45.8141 63.0327 43.7377 63.0327C41.6612 63.0327 39.9779 64.716 39.9779 66.7925C39.9779 68.8689 41.6612 70.5522 43.7377 70.5522Z" fill="#EED23D"/>
</g>
<defs>
<clipPath id="clip0">
<rect width="86" height="86" fill="white" transform="translate(0.80188 0.878052)"/>
</clipPath>
</defs>
</svg>
